<svg xmlns="http://www.w3.org/2000/svg" viewBox="0 0 200 200" width="200" height="200" role="img" aria-labelledby="title"><title id="title">mailcraft</title>
<rect x="10" y="10" width="180" height="180" rx="40" fill="#0E0F12"/><g transform="translate(36 36) scale(0.5)"><path fill="#178F52" fill-rule="evenodd" d="M28 28L37 28A11 11 0 0 0 59 28L77 28A11 11 0 0 0 99 28L117 28A11 11 0 0 0 139 28L157 28A11 11 0 0 0 179 28L197 28A11 11 0 0 0 219 28L228 28L228 37A11 11 0 0 0 228 59L228 77A11 11 0 0 0 228 99L228 117A11 11 0 0 0 228 139L228 157A11 11 0 0 0 228 179L228 197A11 11 0 0 0 228 219L228 228L219 228A11 11 0 0 0 197 228L179 228A11 11 0 0 0 157 228L139 228A11 11 0 0 0 117 228L99 228A11 11 0 0 0 77 228L59 228A11 11 0 0 0 37 228L28 228L28 219A11 11 0 0 0 28 197L28 179A11 11 0 0 0 28 157L28 139A11 11 0 0 0 28 117L28 99A11 11 0 0 0 28 77L28 59A11 11 0 0 0 28 37ZM66 169V81H103A37 37 0 0 1 128 90.72A37 37 0 0 1 190 118V169H166V118A13 14.5 0 0 0 140 118V169H116V118A13 14.5 0 0 0 90 118V169Z"/></g>
</svg>
